<svg xmlns="http://www.w3.org/2000/svg" width="900" height="900" viewBox="0 0 900 900" role="img" aria-label="input placeholder">
  <rect width="900" height="900" fill="#f5f6f8"/>
  <path d="M 371.25 470 A 78.75 78.75 0 0 1 528.75 470" stroke="#1d4e89" stroke-width="1" fill="none" opacity="0.18" /><path d="M 292.5 470 A 157.5 157.5 0 0 1 607.5 470" stroke="#1d4e89" stroke-width="1.4" fill="none" opacity="0.21125" /><path d="M 213.75 470 A 236.25 236.25 0 0 1 686.25 470" stroke="#1d4e89" stroke-width="1.8" fill="none" opacity="0.2425" /><path d="M 135 470 A 315 315 0 0 1 765 470" stroke="#1d4e89" stroke-width="2.2" fill="none" opacity="0.27375" /><path d="M 56.25 470 A 393.75 393.75 0 0 1 843.75 470" stroke="#1d4e89" stroke-width="2.6" fill="none" opacity="0.305" /><path d="M -22.5 470 A 472.5 472.5 0 0 1 922.5 470" stroke="#1d4e89" stroke-width="3" fill="none" opacity="0.33625" /><path d="M -101.25 470 A 551.25 551.25 0 0 1 1001.25 470" stroke="#1d4e89" stroke-width="3.4000000000000004" fill="none" opacity="0.3675" /><path d="M -180 470 A 630 630 0 0 1 1080 470" stroke="#1d4e89" stroke-width="3.8000000000000003" fill="none" opacity="0.39875" />
  <text x="450" y="872" text-anchor="middle" font-family="IBM Plex Mono, monospace" font-size="16" fill="#15171c" opacity="0.55">input</text>
</svg>