<svg xmlns="http://www.w3.org/2000/svg" width="900" height="900" viewBox="0 0 900 900" role="img" aria-label="ours placeholder">
  <rect width="900" height="900" fill="#ffffff"/>
  <path d="M 379.8 430 A 70.2 70.2 0 0 1 520.2 430" stroke="#1d4e89" stroke-width="1" fill="none" opacity="0.18" /><path d="M 309.6 430 A 140.4 140.4 0 0 1 590.4 430" stroke="#1d4e89" stroke-width="1.4" fill="none" opacity="0.205" /><path d="M 239.4 430 A 210.6 210.6 0 0 1 660.6 430" stroke="#1d4e89" stroke-width="1.8" fill="none" opacity="0.22999999999999998" /><path d="M 169.2 430 A 280.8 280.8 0 0 1 730.8 430" stroke="#1d4e89" stroke-width="2.2" fill="none" opacity="0.255" /><path d="M 99 430 A 351 351 0 0 1 801 430" stroke="#1d4e89" stroke-width="2.6" fill="none" opacity="0.28" /><path d="M 28.80000000000001 430 A 421.2 421.2 0 0 1 871.2 430" stroke="#1d4e89" stroke-width="3" fill="none" opacity="0.305" /><path d="M -41.39999999999998 430 A 491.4 491.4 0 0 1 941.4 430" stroke="#1d4e89" stroke-width="3.4000000000000004" fill="none" opacity="0.32999999999999996" /><path d="M -111.60000000000002 430 A 561.6 561.6 0 0 1 1011.6 430" stroke="#1d4e89" stroke-width="3.8000000000000003" fill="none" opacity="0.355" /><path d="M -181.79999999999995 430 A 631.8 631.8 0 0 1 1081.8 430" stroke="#1d4e89" stroke-width="4.2" fill="none" opacity="0.38" /><path d="M -252 430 A 702 702 0 0 1 1152 430" stroke="#1d4e89" stroke-width="4.6" fill="none" opacity="0.405" />
  <text x="450" y="872" text-anchor="middle" font-family="IBM Plex Mono, monospace" font-size="16" fill="#15171c" opacity="0.55">ours</text>
</svg>