<svg xmlns="http://www.w3.org/2000/svg" width="1600" height="900" viewBox="0 0 1600 900" role="img" aria-label="demo video poster placeholder">
  <rect width="1600" height="900" fill="#f5f6f8"/>
  <path d="M 694.4 450 A 105.6 105.6 0 0 1 905.6 450" stroke="#1d4e89" stroke-width="1" fill="none" opacity="0.18" /><path d="M 588.8 450 A 211.2 211.2 0 0 1 1011.2 450" stroke="#1d4e89" stroke-width="1.4" fill="none" opacity="0.205" /><path d="M 483.2 450 A 316.8 316.8 0 0 1 1116.8 450" stroke="#1d4e89" stroke-width="1.8" fill="none" opacity="0.22999999999999998" /><path d="M 377.6 450 A 422.4 422.4 0 0 1 1222.4 450" stroke="#1d4e89" stroke-width="2.2" fill="none" opacity="0.255" /><path d="M 272 450 A 528 528 0 0 1 1328 450" stroke="#1d4e89" stroke-width="2.6" fill="none" opacity="0.28" /><path d="M 166.39999999999998 450 A 633.6 633.6 0 0 1 1433.6 450" stroke="#1d4e89" stroke-width="3" fill="none" opacity="0.305" /><path d="M 60.799999999999955 450 A 739.2 739.2 0 0 1 1539.2 450" stroke="#1d4e89" stroke-width="3.4000000000000004" fill="none" opacity="0.32999999999999996" /><path d="M -44.799999999999955 450 A 844.8 844.8 0 0 1 1644.8 450" stroke="#1d4e89" stroke-width="3.8000000000000003" fill="none" opacity="0.355" /><path d="M -150.39999999999998 450 A 950.4 950.4 0 0 1 1750.4 450" stroke="#1d4e89" stroke-width="4.2" fill="none" opacity="0.38" /><path d="M -256 450 A 1056 1056 0 0 1 1856 450" stroke="#1d4e89" stroke-width="4.6" fill="none" opacity="0.405" />
  <text x="800" y="872" text-anchor="middle" font-family="IBM Plex Mono, monospace" font-size="16" fill="#15171c" opacity="0.55">demo video poster</text>
</svg>