<svg xmlns="http://www.w3.org/2000/svg" width="800" height="800" viewBox="0 0 800 800" role="img" aria-label="echo placeholder">
  <rect width="800" height="800" fill="#f5f6f8"/>
  <path d="M 336 350 A 64 64 0 0 1 464 350" stroke="#1d4e89" stroke-width="1" fill="none" opacity="0.18" /><path d="M 272 350 A 128 128 0 0 1 528 350" stroke="#1d4e89" stroke-width="1.4" fill="none" opacity="0.20777777777777778" /><path d="M 208 350 A 192 192 0 0 1 592 350" stroke="#1d4e89" stroke-width="1.8" fill="none" opacity="0.23555555555555555" /><path d="M 144 350 A 256 256 0 0 1 656 350" stroke="#1d4e89" stroke-width="2.2" fill="none" opacity="0.2633333333333333" /><path d="M 80 350 A 320 320 0 0 1 720 350" stroke="#1d4e89" stroke-width="2.6" fill="none" opacity="0.2911111111111111" /><path d="M 16 350 A 384 384 0 0 1 784 350" stroke="#1d4e89" stroke-width="3" fill="none" opacity="0.3188888888888889" /><path d="M -48 350 A 448 448 0 0 1 848 350" stroke="#1d4e89" stroke-width="3.4000000000000004" fill="none" opacity="0.3466666666666667" /><path d="M -112 350 A 512 512 0 0 1 912 350" stroke="#1d4e89" stroke-width="3.8000000000000003" fill="none" opacity="0.37444444444444447" /><path d="M -176 350 A 576 576 0 0 1 976 350" stroke="#1d4e89" stroke-width="4.2" fill="none" opacity="0.4022222222222222" />
  <text x="400" y="772" text-anchor="middle" font-family="IBM Plex Mono, monospace" font-size="16" fill="#15171c" opacity="0.55">echo</text>
</svg>