<svg xmlns="http://www.w3.org/2000/svg" width="800" height="800" viewBox="0 0 800 800" role="img" aria-label="bloom placeholder">
  <rect width="800" height="800" fill="#ffffff"/>
  <path d="M 328 362 A 72 72 0 0 1 472 362" stroke="#1d4e89" stroke-width="1" fill="none" opacity="0.18" /><path d="M 256 362 A 144 144 0 0 1 544 362" stroke="#1d4e89" stroke-width="1.4" fill="none" opacity="0.21125" /><path d="M 184 362 A 216 216 0 0 1 616 362" stroke="#1d4e89" stroke-width="1.8" fill="none" opacity="0.2425" /><path d="M 112 362 A 288 288 0 0 1 688 362" stroke="#1d4e89" stroke-width="2.2" fill="none" opacity="0.27375" /><path d="M 40 362 A 360 360 0 0 1 760 362" stroke="#1d4e89" stroke-width="2.6" fill="none" opacity="0.305" /><path d="M -32 362 A 432 432 0 0 1 832 362" stroke="#1d4e89" stroke-width="3" fill="none" opacity="0.33625" /><path d="M -104 362 A 504 504 0 0 1 904 362" stroke="#1d4e89" stroke-width="3.4000000000000004" fill="none" opacity="0.3675" /><path d="M -176 362 A 576 576 0 0 1 976 362" stroke="#1d4e89" stroke-width="3.8000000000000003" fill="none" opacity="0.39875" />
  <text x="400" y="772" text-anchor="middle" font-family="IBM Plex Mono, monospace" font-size="16" fill="#15171c" opacity="0.55">bloom</text>
</svg>