<svg xmlns="http://www.w3.org/2000/svg" width="800" height="800" viewBox="0 0 800 800" role="img" aria-label="leaf placeholder">
  <rect width="800" height="800" fill="#f5f6f8"/>
  <path d="M 328 398 A 72 72 0 0 1 472 398" stroke="#1d4e89" stroke-width="1" fill="none" opacity="0.18" /><path d="M 256 398 A 144 144 0 0 1 544 398" stroke="#1d4e89" stroke-width="1.4" fill="none" opacity="0.21125" /><path d="M 184 398 A 216 216 0 0 1 616 398" stroke="#1d4e89" stroke-width="1.8" fill="none" opacity="0.2425" /><path d="M 112 398 A 288 288 0 0 1 688 398" stroke="#1d4e89" stroke-width="2.2" fill="none" opacity="0.27375" /><path d="M 40 398 A 360 360 0 0 1 760 398" stroke="#1d4e89" stroke-width="2.6" fill="none" opacity="0.305" /><path d="M -32 398 A 432 432 0 0 1 832 398" stroke="#1d4e89" stroke-width="3" fill="none" opacity="0.33625" /><path d="M -104 398 A 504 504 0 0 1 904 398" stroke="#1d4e89" stroke-width="3.4000000000000004" fill="none" opacity="0.3675" /><path d="M -176 398 A 576 576 0 0 1 976 398" stroke="#1d4e89" stroke-width="3.8000000000000003" fill="none" opacity="0.39875" />
  <text x="400" y="772" text-anchor="middle" font-family="IBM Plex Mono, monospace" font-size="16" fill="#15171c" opacity="0.55">leaf</text>
</svg>