<svg xmlns="http://www.w3.org/2000/svg" width="800" height="800" viewBox="0 0 800 800" role="img" aria-label="grid placeholder">
  <rect width="800" height="800" fill="#f5f6f8"/>
  <path d="M 317.7142857142857 374 A 82.28571428571429 82.28571428571429 0 0 1 482.2857142857143 374" stroke="#1d4e89" stroke-width="1" fill="none" opacity="0.18" /><path d="M 235.42857142857142 374 A 164.57142857142858 164.57142857142858 0 0 1 564.5714285714286 374" stroke="#1d4e89" stroke-width="1.4" fill="none" opacity="0.2157142857142857" /><path d="M 153.14285714285714 374 A 246.85714285714286 246.85714285714286 0 0 1 646.8571428571429 374" stroke="#1d4e89" stroke-width="1.8" fill="none" opacity="0.25142857142857145" /><path d="M 70.85714285714283 374 A 329.14285714285717 329.14285714285717 0 0 1 729.1428571428571 374" stroke="#1d4e89" stroke-width="2.2" fill="none" opacity="0.28714285714285714" /><path d="M -11.428571428571445 374 A 411.42857142857144 411.42857142857144 0 0 1 811.4285714285714 374" stroke="#1d4e89" stroke-width="2.6" fill="none" opacity="0.32285714285714284" /><path d="M -93.71428571428572 374 A 493.7142857142857 493.7142857142857 0 0 1 893.7142857142858 374" stroke="#1d4e89" stroke-width="3" fill="none" opacity="0.35857142857142854" /><path d="M -176 374 A 576 576 0 0 1 976 374" stroke="#1d4e89" stroke-width="3.4000000000000004" fill="none" opacity="0.39428571428571424" />
  <text x="400" y="772" text-anchor="middle" font-family="IBM Plex Mono, monospace" font-size="16" fill="#15171c" opacity="0.55">grid</text>
</svg>