<svg xmlns="http://www.w3.org/2000/svg" width="1600" height="900" viewBox="0 0 1600 900" role="img" aria-label="interface — hover to zoom placeholder">
  <rect width="1600" height="900" fill="#f5f6f8"/>
  <path d="M 706.6666666666666 470 A 93.33333333333333 93.33333333333333 0 0 1 893.3333333333334 470" stroke="#1d4e89" stroke-width="1" fill="none" opacity="0.18" /><path d="M 613.3333333333334 470 A 186.66666666666666 186.66666666666666 0 0 1 986.6666666666666 470" stroke="#1d4e89" stroke-width="1.4" fill="none" opacity="0.20083333333333334" /><path d="M 520 470 A 280 280 0 0 1 1080 470" stroke="#1d4e89" stroke-width="1.8" fill="none" opacity="0.22166666666666665" /><path d="M 426.6666666666667 470 A 373.3333333333333 373.3333333333333 0 0 1 1173.3333333333333 470" stroke="#1d4e89" stroke-width="2.2" fill="none" opacity="0.2425" /><path d="M 333.3333333333333 470 A 466.6666666666667 466.6666666666667 0 0 1 1266.6666666666667 470" stroke="#1d4e89" stroke-width="2.6" fill="none" opacity="0.2633333333333333" /><path d="M 240 470 A 560 560 0 0 1 1360 470" stroke="#1d4e89" stroke-width="3" fill="none" opacity="0.2841666666666667" /><path d="M 146.66666666666663 470 A 653.3333333333334 653.3333333333334 0 0 1 1453.3333333333335 470" stroke="#1d4e89" stroke-width="3.4000000000000004" fill="none" opacity="0.305" /><path d="M 53.33333333333337 470 A 746.6666666666666 746.6666666666666 0 0 1 1546.6666666666665 470" stroke="#1d4e89" stroke-width="3.8000000000000003" fill="none" opacity="0.3258333333333333" /><path d="M -40 470 A 840 840 0 0 1 1640 470" stroke="#1d4e89" stroke-width="4.2" fill="none" opacity="0.3466666666666667" /><path d="M -133.33333333333337 470 A 933.3333333333334 933.3333333333334 0 0 1 1733.3333333333335 470" stroke="#1d4e89" stroke-width="4.6" fill="none" opacity="0.3675" /><path d="M -226.66666666666674 470 A 1026.6666666666667 1026.6666666666667 0 0 1 1826.6666666666667 470" stroke="#1d4e89" stroke-width="5" fill="none" opacity="0.3883333333333333" /><path d="M -320 470 A 1120 1120 0 0 1 1920 470" stroke="#1d4e89" stroke-width="5.4" fill="none" opacity="0.4091666666666667" />
  <text x="800" y="872" text-anchor="middle" font-family="IBM Plex Mono, monospace" font-size="16" fill="#15171c" opacity="0.55">interface — hover to zoom</text>
</svg>