<svg xmlns="http://www.w3.org/2000/svg" width="1600" height="700" viewBox="0 0 1600 700" role="img" aria-label="teaser — replace with result montage placeholder">
  <rect width="1600" height="700" fill="#ffffff"/>
  <path d="M 689.7777777777778 360 A 110.22222222222223 110.22222222222223 0 0 1 910.2222222222222 360" stroke="#1d4e89" stroke-width="1" fill="none" opacity="0.18" /><path d="M 579.5555555555555 360 A 220.44444444444446 220.44444444444446 0 0 1 1020.4444444444445 360" stroke="#1d4e89" stroke-width="1.4" fill="none" opacity="0.20777777777777778" /><path d="M 469.3333333333333 360 A 330.6666666666667 330.6666666666667 0 0 1 1130.6666666666667 360" stroke="#1d4e89" stroke-width="1.8" fill="none" opacity="0.23555555555555555" /><path d="M 359.1111111111111 360 A 440.8888888888889 440.8888888888889 0 0 1 1240.888888888889 360" stroke="#1d4e89" stroke-width="2.2" fill="none" opacity="0.2633333333333333" /><path d="M 248.8888888888889 360 A 551.1111111111111 551.1111111111111 0 0 1 1351.111111111111 360" stroke="#1d4e89" stroke-width="2.6" fill="none" opacity="0.2911111111111111" /><path d="M 138.66666666666663 360 A 661.3333333333334 661.3333333333334 0 0 1 1461.3333333333335 360" stroke="#1d4e89" stroke-width="3" fill="none" opacity="0.3188888888888889" /><path d="M 28.444444444444457 360 A 771.5555555555555 771.5555555555555 0 0 1 1571.5555555555557 360" stroke="#1d4e89" stroke-width="3.4000000000000004" fill="none" opacity="0.3466666666666667" /><path d="M -81.77777777777783 360 A 881.7777777777778 881.7777777777778 0 0 1 1681.7777777777778 360" stroke="#1d4e89" stroke-width="3.8000000000000003" fill="none" opacity="0.37444444444444447" /><path d="M -192 360 A 992 992 0 0 1 1792 360" stroke="#1d4e89" stroke-width="4.2" fill="none" opacity="0.4022222222222222" />
  <text x="800" y="672" text-anchor="middle" font-family="IBM Plex Mono, monospace" font-size="16" fill="#15171c" opacity="0.55">teaser — replace with result montage</text>
</svg>