<svg xmlns="http://www.w3.org/2000/svg" width="1000" height="700" viewBox="0 0 1000 700" role="img" aria-label="ours — video placeholder">
  <rect width="1000" height="700" fill="#ffffff"/>
  <path d="M 430 330 A 70 70 0 0 1 570 330" stroke="#1d4e89" stroke-width="1" fill="none" opacity="0.18" /><path d="M 360 330 A 140 140 0 0 1 640 330" stroke="#1d4e89" stroke-width="1.4" fill="none" opacity="0.205" /><path d="M 290 330 A 210 210 0 0 1 710 330" stroke="#1d4e89" stroke-width="1.8" fill="none" opacity="0.22999999999999998" /><path d="M 220 330 A 280 280 0 0 1 780 330" stroke="#1d4e89" stroke-width="2.2" fill="none" opacity="0.255" /><path d="M 150 330 A 350 350 0 0 1 850 330" stroke="#1d4e89" stroke-width="2.6" fill="none" opacity="0.28" /><path d="M 80 330 A 420 420 0 0 1 920 330" stroke="#1d4e89" stroke-width="3" fill="none" opacity="0.305" /><path d="M 10 330 A 490 490 0 0 1 990 330" stroke="#1d4e89" stroke-width="3.4000000000000004" fill="none" opacity="0.32999999999999996" /><path d="M -60 330 A 560 560 0 0 1 1060 330" stroke="#1d4e89" stroke-width="3.8000000000000003" fill="none" opacity="0.355" /><path d="M -130 330 A 630 630 0 0 1 1130 330" stroke="#1d4e89" stroke-width="4.2" fill="none" opacity="0.38" /><path d="M -200 330 A 700 700 0 0 1 1200 330" stroke="#1d4e89" stroke-width="4.6" fill="none" opacity="0.405" />
  <text x="500" y="672" text-anchor="middle" font-family="IBM Plex Mono, monospace" font-size="16" fill="#15171c" opacity="0.55">ours — video</text>
</svg>