<svg xmlns="http://www.w3.org/2000/svg" width="1000" height="700" viewBox="0 0 1000 700" role="img" aria-label="baseline — video placeholder">
  <rect width="1000" height="700" fill="#f5f6f8"/>
  <path d="M 414.2857142857143 370 A 85.71428571428571 85.71428571428571 0 0 1 585.7142857142857 370" stroke="#1d4e89" stroke-width="1" fill="none" opacity="0.18" /><path d="M 328.57142857142856 370 A 171.42857142857142 171.42857142857142 0 0 1 671.4285714285714 370" stroke="#1d4e89" stroke-width="1.4" fill="none" opacity="0.2157142857142857" /><path d="M 242.85714285714283 370 A 257.14285714285717 257.14285714285717 0 0 1 757.1428571428571 370" stroke="#1d4e89" stroke-width="1.8" fill="none" opacity="0.25142857142857145" /><path d="M 157.14285714285717 370 A 342.85714285714283 342.85714285714283 0 0 1 842.8571428571429 370" stroke="#1d4e89" stroke-width="2.2" fill="none" opacity="0.28714285714285714" /><path d="M 71.42857142857144 370 A 428.57142857142856 428.57142857142856 0 0 1 928.5714285714286 370" stroke="#1d4e89" stroke-width="2.6" fill="none" opacity="0.32285714285714284" /><path d="M -14.285714285714334 370 A 514.2857142857143 514.2857142857143 0 0 1 1014.2857142857143 370" stroke="#1d4e89" stroke-width="3" fill="none" opacity="0.35857142857142854" /><path d="M -100 370 A 600 600 0 0 1 1100 370" stroke="#1d4e89" stroke-width="3.4000000000000004" fill="none" opacity="0.39428571428571424" />
  <text x="500" y="672" text-anchor="middle" font-family="IBM Plex Mono, monospace" font-size="16" fill="#15171c" opacity="0.55">baseline — video</text>
</svg>