<svg xmlns="http://www.w3.org/2000/svg" width="1600" height="560" viewBox="0 0 1600 560" role="img" aria-label="system workflow placeholder">
  <rect width="1600" height="560" fill="#ffffff"/>
  <path d="M 700 300 A 100 100 0 0 1 900 300" stroke="#1d4e89" stroke-width="1" fill="none" opacity="0.18" /><path d="M 600 300 A 200 200 0 0 1 1000 300" stroke="#1d4e89" stroke-width="1.4" fill="none" opacity="0.21125" /><path d="M 500 300 A 300 300 0 0 1 1100 300" stroke="#1d4e89" stroke-width="1.8" fill="none" opacity="0.2425" /><path d="M 400 300 A 400 400 0 0 1 1200 300" stroke="#1d4e89" stroke-width="2.2" fill="none" opacity="0.27375" /><path d="M 300 300 A 500 500 0 0 1 1300 300" stroke="#1d4e89" stroke-width="2.6" fill="none" opacity="0.305" /><path d="M 200 300 A 600 600 0 0 1 1400 300" stroke="#1d4e89" stroke-width="3" fill="none" opacity="0.33625" /><path d="M 100 300 A 700 700 0 0 1 1500 300" stroke="#1d4e89" stroke-width="3.4000000000000004" fill="none" opacity="0.3675" /><path d="M 0 300 A 800 800 0 0 1 1600 300" stroke="#1d4e89" stroke-width="3.8000000000000003" fill="none" opacity="0.39875" />
  <text x="800" y="532" text-anchor="middle" font-family="IBM Plex Mono, monospace" font-size="16" fill="#15171c" opacity="0.55">system workflow</text>
</svg>